<svg width="498" height="265" viewBox="0 0 498 265" fill="none" xmlns="http://www.w3.org/2000/svg">
<rect x="0.480713" y="50.8202" width="100" height="120" transform="rotate(-30 0.480713 50.8202)" fill="white"/>
<path d="M33.9333 57.1618L68.9333 117.784L94.9141 102.784C105.306 96.7835 109.427 86.3214 103.527 76.1023C98.4774 67.3554 90.3884 66.9449 85.1351 68.2459L84.6351 67.3798C88.3884 63.4808 91.8676 56.5069 86.8676 47.8466C81.2176 38.0605 70.2198 36.2118 59.8274 42.2118L33.9333 57.1618ZM46.9569 59.9194L63.4114 50.4194C69.7334 46.7694 76.0403 48.0933 79.1903 53.5493C82.4403 59.1784 80.6066 65.2023 74.198 68.9023L57.6569 78.4523L46.9569 59.9194ZM62.1569 86.2466L78.6114 76.7466C85.3664 72.8466 91.3135 74.1473 94.6635 79.9496C97.9135 85.5788 96.2664 91.7259 89.6846 95.5259L73.0569 105.126L62.1569 86.2466Z" fill="#150C72"/>
<rect x="100.48" y="50.8202" width="100" height="120" transform="rotate(-30 100.48 50.8202)" fill="white"/>
<path d="M145.43 82.0473L153.53 96.0769C162.73 112.012 177.12 115.135 191.842 106.635C206.564 98.1354 211.054 84.1118 201.854 68.1769L193.754 54.1473C184.554 38.2124 170.164 35.0888 155.442 43.5887C140.72 52.0887 136.23 66.1124 145.43 82.0473ZM153.804 76.7509C147.904 66.5318 150.056 56.8598 159.842 51.2098C169.628 45.5598 179.08 48.5318 184.98 58.7509L193.48 73.4733C199.38 83.6924 197.228 93.3644 187.442 99.0144C177.656 104.664 168.204 101.692 162.304 91.4733L153.804 76.7509Z" fill="#150C72"/>
<rect x="200.48" y="50.8202" width="100" height="120" transform="rotate(-30 200.48 50.8202)" fill="white"/>
<path d="M247.267 80.9865L255.367 95.0161C264.567 110.951 278.957 114.075 293.679 105.575C308.402 97.0746 312.892 83.051 303.692 67.1161L295.592 53.0865C286.392 37.1516 272.002 34.028 257.279 42.528C242.557 51.028 238.067 65.0516 247.267 80.9865ZM255.641 75.6901C249.741 65.471 251.893 55.799 261.679 50.149C271.466 44.499 280.918 47.471 286.818 57.6901L295.318 72.4125C301.218 82.6316 299.066 92.3036 289.279 97.9536C279.493 103.604 270.041 100.632 264.141 90.4125L255.641 75.6901Z" fill="#150C72"/>
<rect x="300.48" y="50.8202" width="100" height="120" transform="rotate(-30 300.48 50.8202)" fill="white"/>
<path d="M385.053 27.6475L372.842 34.6975L360.423 78.5871L359.557 79.0871L343.657 51.5475L335.083 56.4975L370.083 117.119L378.657 112.169L366.157 90.5186L370.191 77.1048L408.448 94.9693L419.1 88.8193L372.953 67.889L385.053 27.6475Z" fill="#150C72"/>
<rect x="50.75" y="160.777" width="100" height="120" transform="rotate(-30 50.75 160.777)" fill="#150C72"/>
<path d="M105.196 208.28C114.346 224.128 128.812 227.785 143.881 219.085C158.257 210.785 162.067 197.384 154.417 184.134L153.317 182.229L144.744 187.179L145.894 189.171C150.594 197.311 149.181 205.864 139.481 211.464C129.695 217.114 119.969 214.068 113.869 203.503L105.969 189.82C99.8695 179.254 102.008 169.359 111.881 163.659C121.321 158.209 129.744 161.198 134.444 169.339L135.294 170.811L143.867 165.861L143.067 164.475C135.417 151.225 122.204 147.538 107.481 156.038C92.5855 164.638 88.3458 179.095 97.4958 194.943L105.196 208.28Z" fill="white"/>
<rect x="150.75" y="160.777" width="100" height="120" transform="rotate(-30 150.75 160.777)" fill="#150C72"/>
<path d="M189.688 168.62L224.688 229.242L263.486 206.842L259.036 199.134L228.812 216.584L198.262 163.67L189.688 168.62Z" fill="white"/>
<rect x="250.75" y="160.777" width="100" height="120" transform="rotate(-30 250.75 160.777)" fill="#150C72"/>
<path d="M283.646 170.954L306.746 210.964C314.846 224.994 328.179 227.688 342.122 219.638C356.065 211.588 360.399 198.694 352.299 184.664L329.199 144.654L320.625 149.604L343.825 189.788C349.075 198.881 346.816 206.767 337.722 212.017C328.629 217.267 320.67 215.281 315.42 206.188L292.22 166.004L283.646 170.954Z" fill="white"/>
<rect x="350.75" y="160.777" width="100" height="120" transform="rotate(-30 350.75 160.777)" fill="#150C72"/>
<path d="M386.224 170.62L421.224 231.242L447.205 216.242C457.597 210.242 461.718 199.78 455.818 189.561C450.768 180.814 442.679 180.403 437.426 181.704L436.926 180.838C440.679 176.939 444.159 169.965 439.159 161.305C433.509 151.519 422.511 149.67 412.118 155.67L386.224 170.62ZM399.248 173.378L415.702 163.878C422.024 160.228 428.331 161.552 431.481 167.008C434.731 172.637 432.898 178.661 426.489 182.361L409.948 191.911L399.248 173.378ZM414.448 199.705L430.902 190.205C437.657 186.305 443.604 187.606 446.954 193.408C450.204 199.037 448.557 205.184 441.976 208.984L425.348 218.584L414.448 199.705Z" fill="white"/>
</svg>
